# xmcd
#
# Track frame offsets: 
#        150
#        12674
#        26085
#        38530
#        52637
#        65137
#        78523
#        88876
#        102125
#        116228
#        126569
#        138509
#        151148
#        161969
#        172183
#        182718
#        202939
#        215792
#        226202
#        239730
#        253378
#        264428
#        272831
#        285147
#        297581
#
# Disc length: 4157 seconds
#
# Revision: 0
# Processed by: cddbd v1.5.2PL0 Copyright (c) Steve Scherf et al.
# Submitted via: ExactAudioCopy v1.0b3
#
DISCID=81103b19
DTITLE=Muddy Waters - The Complete Aristocrat and Chess Singles As and Bs 
DTITLE=1947-62 CD 4
DYEAR=2014
DGENRE=Blues
TTITLE0=Walkin' Thru The Park
TTITLE1=Clouds In My Heart
TTITLE2=Ooh Wee
TTITLE3=Take The Bitter With The Sweet
TTITLE4=She's Into Somethin'
TTITLE5=Recipe For Love
TTITLE6=Tell Me Baby
TTITLE7=I Feel So Good
TTITLE8=When I Get To Thinking
TTITLE9=I'm Your Doctor
TTITLE10=Read Way Back
TTITLE11=Love Affair 
TTITLE12=Look What You've Done
TTITLE13=Tiger In Your Tank
TTITLE14=Meanest Woman
TTITLE15=Got My Mojo Working Part 1 (live)
TTITLE16=Woman Wanted
TTITLE17=Messin' With The Man
TTITLE18=Lonesome Room Blues
TTITLE19=Going Home
TTITLE20=Tough Times
TTITLE21=Muddy Waters Twist
TTITLE22=You Shook Me
TTITLE23=You Need Love
TTITLE24=Little Brown Bird
EXTD=
EXTT0=
EXTT1=
EXTT2=
EXTT3=
EXTT4=
EXTT5=
EXTT6=
EXTT7=
EXTT8=
EXTT9=
EXTT10=
EXTT11=
EXTT12=
EXTT13=
EXTT14=
EXTT15=
EXTT16=
EXTT17=
EXTT18=
EXTT19=
EXTT20=
EXTT21=
EXTT22=
EXTT23=
EXTT24=
PLAYORDER=
